<?xml version="1.0" encoding="UTF-8" standalone="no"?>
<!-- Created with Inkscape (http://www.inkscape.org/) -->

<svg
   width="1999.9999"
   height="2000.0001"
   viewBox="0 0 529.16662 529.16669"
   version="1.1"
   id="svg1"
   xmlns="http://www.w3.org/2000/svg"
   xmlns:svg="http://www.w3.org/2000/svg">
  <defs
     id="defs1" />
  <g
     id="layer1">
    <path
       style="fill:#000000;stroke:#000000;stroke-width:0.305111"
       d="M 194.70181,298.16481 H 55.570981 c 0,0 -13.822724,1.27736 -10.373789,-11.59423 3.448933,-12.8716 39.47771,-147.33283 39.47771,-147.33283 0,0 4.458341,-8.27401 14.221901,-8.27401 h 51.258727 l 38.08846,-65.971148 c 0,0 6.4578,-6.645374 9.50893,-1.76359 3.05111,4.881783 0,69.565408 0,69.565408 h 69.53473 c 0,0 12.28622,-0.4248 10.3738,6.71245 -1.91243,7.13726 -16.44903,61.38861 -16.44903,61.38861 h -85.42753 c 0,0 -10.95409,-2.96271 -8.54313,-11.96056 2.41097,-8.99784 7.97671,-29.76948 7.97671,-29.76948 L 90.353683,225.54829 H 241.07874 c 0,0 11.59424,-0.61023 12.20445,5.49201 0.61023,6.10223 -43.45217,162.16573 -43.45217,162.16573 0,0 -3.53499,10.52735 -11.46789,10.52735 h -65.90406 l -42.027937,51.49226 c 0,0 -4.95924,5.8687 -8.010344,0.98691 -3.05111,-4.88178 5.492004,-53.0894 5.492004,-53.0894 H 26.280281 c 0,0 -8.319767,-0.87738 -6.102229,-9.15334 L 33.7694,343.24622 h 81.60342 c 0,0 11.82854,-1.52928 9.76357,6.17732 -2.06498,7.7066 -11.25118,41.98999 -11.25118,41.98999 z"
       id="path1" />
    <path
       style="fill:#000000;stroke:#000000;stroke-width:0.305111"
       d="m 285.01479,136.45575 -17.04028,63.59519 h 157.39154 c 0,0 11.00044,0.67303 7.33109,7.02855 -3.66936,6.3555 -41.50357,69.1173 -41.50357,69.1173 0,0 2.4409,5.492 9.15335,5.492 h 28.68047 c 0,0 6.88704,0.57277 4.42718,4.83284 -2.45988,4.26061 -76.44796,100.30134 -76.44796,100.30134 l 27.61554,-72.01611 c 0,0 0.46919,-6.71244 -3.80236,-6.71244 h -39.03632 c 0,0 -6.86559,-3.25507 -3.66133,-9.15335 l 32.5777,-59.96787 c 0,0 1.22045,-7.32268 -5.49201,-7.32268 h -88.73616 l -42.87189,160.00004 c 0,0 -0.45394,9.64193 4.42785,10.86237 4.88178,1.22045 181.02681,-0.2221 181.02681,-0.2221 0,0 139.95043,-78.49666 60.62145,-260.9533 -19.7115,-3.05111 -194.6611,-4.88178 -194.6611,-4.88178 z"
       id="path2" />
  </g>
</svg>
